<svg viewBox="0 0 330 200" xmlns="http://www.w3.org/2000/svg"><g><g><g><g><g><line x1="50" y1="178" x2="45" y2="178" style="visibility: inherit;" fill="rgb(0, 0, 0)" stroke="rgb(204, 204, 204)" stroke-width="1px"></line><line x1="50" y1="161.81818181818178" x2="45" y2="161.81818181818178" style="visibility: inherit;" fill="rgb(0, 0, 0)" stroke="rgb(204, 204, 204)" stroke-width="1px"></line><line x1="50" y1="145.6363636363636" x2="45" y2="145.6363636363636" style="visibility: inherit;" fill="rgb(0, 0, 0)" stroke="rgb(204, 204, 204)" stroke-width="1px"></line><line x1="50" y1="129.4545454545454" x2="45" y2="129.4545454545454" style="visibility: inherit;" fill="rgb(0, 0, 0)" stroke="rgb(204, 204, 204)" stroke-width="1px"></line><line x1="50" y1="113.27272727272721" x2="45" y2="113.27272727272721" style="visibility: inherit;" fill="rgb(0, 0, 0)" stroke="rgb(204, 204, 204)" stroke-width="1px"></line><line x1="50" y1="97.09090909090901" x2="45" y2="97.09090909090901" style="visibility: inherit;" fill="rgb(0, 0, 0)" stroke="rgb(204, 204, 204)" stroke-width="1px"></line><line x1="50" y1="80.90909090909082" x2="45" y2="80.90909090909082" style="visibility: inherit;" fill="rgb(0, 0, 0)" stroke="rgb(204, 204, 204)" stroke-width="1px"></line><line x1="50" y1="64.7272727272726" x2="45" y2="64.7272727272726" style="visibility: inherit;" fill="rgb(0, 0, 0)" stroke="rgb(204, 204, 204)" stroke-width="1px"></line><line x1="50" y1="48.545454545454426" x2="45" y2="48.545454545454426" style="visibility: inherit;" fill="rgb(0, 0, 0)" stroke="rgb(204, 204, 204)" stroke-width="1px"></line><line x1="50" y1="32.363636363636395" x2="45" y2="32.363636363636395" style="visibility: inherit;" fill="rgb(0, 0, 0)" stroke="rgb(204, 204, 204)" stroke-width="1px"></line><line x1="50" y1="16.18181818181821" x2="45" y2="16.18181818181821" style="visibility: inherit;" fill="rgb(0, 0, 0)" stroke="rgb(204, 204, 204)" stroke-width="1px"></line><line x1="50" y1="0" x2="45" y2="0" style="visibility: inherit;" fill="rgb(0, 0, 0)" stroke="rgb(204, 204, 204)" stroke-width="1px"></line></g><g transform="translate(40, 0)"><text x="0" y="178" dx="0em" dy="0.3em" style="text-anchor: end; visibility: hidden; font-family: Roboto, sans-serif; font-size: 12px; font-weight: 200;" fill="rgb(50, 49, 63)" stroke="none" stroke-width="1px">0.6</text><text x="0" y="161.81818181818178" dx="0em" dy="0.3em" style="text-anchor: end; visibility: inherit; font-family: Roboto, sans-serif; font-size: 12px; font-weight: 200;" fill="rgb(50, 49, 63)" stroke="none" stroke-width="1px">0.61</text><text x="0" y="145.6363636363636" dx="0em" dy="0.3em" style="text-anchor: end; visibility: hidden; font-family: Roboto, sans-serif; font-size: 12px; font-weight: 200;" fill="rgb(50, 49, 63)" stroke="none" stroke-width="1px">0.62</text><text x="0" y="129.4545454545454" dx="0em" dy="0.3em" style="text-anchor: end; visibility: inherit; font-family: Roboto, sans-serif; font-size: 12px; font-weight: 200;" fill="rgb(50, 49, 63)" stroke="none" stroke-width="1px">0.63</text><text x="0" y="113.27272727272721" dx="0em" dy="0.3em" style="text-anchor: end; visibility: hidden; font-family: Roboto, sans-serif; font-size: 12px; font-weight: 200;" fill="rgb(50, 49, 63)" stroke="none" stroke-width="1px">0.64</text><text x="0" y="97.09090909090901" dx="0em" dy="0.3em" style="text-anchor: end; visibility: inherit; font-family: Roboto, sans-serif; font-size: 12px; font-weight: 200;" fill="rgb(50, 49, 63)" stroke="none" stroke-width="1px">0.65</text><text x="0" y="80.90909090909082" dx="0em" dy="0.3em" style="text-anchor: end; visibility: hidden; font-family: Roboto, sans-serif; font-size: 12px; font-weight: 200;" fill="rgb(50, 49, 63)" stroke="none" stroke-width="1px">0.66</text><text x="0" y="64.7272727272726" dx="0em" dy="0.3em" style="text-anchor: end; visibility: inherit; font-family: Roboto, sans-serif; font-size: 12px; font-weight: 200;" fill="rgb(50, 49, 63)" stroke="none" stroke-width="1px">0.67</text><text x="0" y="48.545454545454426" dx="0em" dy="0.3em" style="text-anchor: end; visibility: hidden; font-family: Roboto, sans-serif; font-size: 12px; font-weight: 200;" fill="rgb(50, 49, 63)" stroke="none" stroke-width="1px">0.68</text><text x="0" y="32.363636363636395" dx="0em" dy="0.3em" style="text-anchor: end; visibility: inherit; font-family: Roboto, sans-serif; font-size: 12px; font-weight: 200;" fill="rgb(50, 49, 63)" stroke="none" stroke-width="1px">0.69</text><text x="0" y="16.18181818181821" dx="0em" dy="0.3em" style="text-anchor: end; visibility: hidden; font-family: Roboto, sans-serif; font-size: 12px; font-weight: 200;" fill="rgb(50, 49, 63)" stroke="none" stroke-width="1px">0.7</text><text x="0" y="0" dx="0em" dy="0.3em" style="text-anchor: end; visibility: hidden; font-family: Roboto, sans-serif; font-size: 12px; font-weight: 200;" fill="rgb(50, 49, 63)" stroke="none" stroke-width="1px">0.71</text></g><line x1="50" y1="0" x2="50" y2="178" fill="rgb(0, 0, 0)" stroke="rgb(204, 204, 204)" stroke-width="1px"></line></g></g><g transform="translate(50, 0)" clip-path="url(#clip_0)"><clipPath id="clip_0"><rect width="280" height="178"></rect></clipPath><g><g><g><line x1="0" y1="0" x2="0" y2="178" fill="rgb(0, 0, 0)" stroke="rgb(60, 60, 60)" stroke-width="1px" opacity="0.25"></line><line x1="31.11111111111111" y1="0" x2="31.11111111111111" y2="178" fill="rgb(0, 0, 0)" stroke="rgb(60, 60, 60)" stroke-width="1px" opacity="0.25"></line><line x1="62.22222222222222" y1="0" x2="62.22222222222222" y2="178" fill="rgb(0, 0, 0)" stroke="rgb(60, 60, 60)" stroke-width="1px" opacity="0.25"></line><line x1="93.33333333333333" y1="0" x2="93.33333333333333" y2="178" fill="rgb(0, 0, 0)" stroke="rgb(60, 60, 60)" stroke-width="1px" opacity="0.25"></line><line x1="124.44444444444444" y1="0" x2="124.44444444444444" y2="178" fill="rgb(0, 0, 0)" stroke="rgb(60, 60, 60)" stroke-width="1px" opacity="0.25"></line><line x1="155.55555555555557" y1="0" x2="155.55555555555557" y2="178" fill="rgb(0, 0, 0)" stroke="rgb(60, 60, 60)" stroke-width="1px" opacity="0.25"></line><line x1="186.66666666666666" y1="0" x2="186.66666666666666" y2="178" fill="rgb(0, 0, 0)" stroke="rgb(60, 60, 60)" stroke-width="1px" opacity="0.25"></line><line x1="217.77777777777777" y1="0" x2="217.77777777777777" y2="178" fill="rgb(0, 0, 0)" stroke="rgb(60, 60, 60)" stroke-width="1px" opacity="0.25"></line><line x1="248.88888888888889" y1="0" x2="248.88888888888889" y2="178" fill="rgb(0, 0, 0)" stroke="rgb(60, 60, 60)" stroke-width="1px" opacity="0.25"></line><line x1="280" y1="0" x2="280" y2="178" fill="rgb(0, 0, 0)" stroke="rgb(60, 60, 60)" stroke-width="1px" opacity="0.25"></line></g><g><line x1="0" y1="178" x2="280" y2="178" fill="rgb(0, 0, 0)" stroke="rgb(60, 60, 60)" stroke-width="1px" opacity="0.25"></line><line x1="0" y1="161.81818181818178" x2="280" y2="161.81818181818178" fill="rgb(0, 0, 0)" stroke="rgb(60, 60, 60)" stroke-width="1px" opacity="0.25"></line><line x1="0" y1="145.6363636363636" x2="280" y2="145.6363636363636" fill="rgb(0, 0, 0)" stroke="rgb(60, 60, 60)" stroke-width="1px" opacity="0.25"></line><line x1="0" y1="129.4545454545454" x2="280" y2="129.4545454545454" fill="rgb(0, 0, 0)" stroke="rgb(60, 60, 60)" stroke-width="1px" opacity="0.25"></line><line x1="0" y1="113.27272727272721" x2="280" y2="113.27272727272721" fill="rgb(0, 0, 0)" stroke="rgb(60, 60, 60)" stroke-width="1px" opacity="0.25"></line><line x1="0" y1="97.09090909090901" x2="280" y2="97.09090909090901" fill="rgb(0, 0, 0)" stroke="rgb(60, 60, 60)" stroke-width="1px" opacity="0.25"></line><line x1="0" y1="80.90909090909082" x2="280" y2="80.90909090909082" fill="rgb(0, 0, 0)" stroke="rgb(60, 60, 60)" stroke-width="1px" opacity="0.25"></line><line x1="0" y1="64.7272727272726" x2="280" y2="64.7272727272726" fill="rgb(0, 0, 0)" stroke="rgb(60, 60, 60)" stroke-width="1px" opacity="0.25"></line><line x1="0" y1="48.545454545454426" x2="280" y2="48.545454545454426" fill="rgb(0, 0, 0)" stroke="rgb(60, 60, 60)" stroke-width="1px" opacity="0.25"></line><line x1="0" y1="32.363636363636395" x2="280" y2="32.363636363636395" fill="rgb(0, 0, 0)" stroke="rgb(60, 60, 60)" stroke-width="1px" opacity="0.25"></line><line x1="0" y1="16.18181818181821" x2="280" y2="16.18181818181821" fill="rgb(0, 0, 0)" stroke="rgb(60, 60, 60)" stroke-width="1px" opacity="0.25"></line><line x1="0" y1="0" x2="280" y2="0" fill="rgb(0, 0, 0)" stroke="rgb(60, 60, 60)" stroke-width="1px" opacity="0.25"></line></g></g></g><g><g><line x1="0" y1="1148.909090909091" x2="280" y2="1148.909090909091" fill="rgb(0, 0, 0)" stroke="rgb(153, 153, 153)" stroke-width="1.5px"></line></g></g><g><g><line x1="31.11111111111111" y1="0" x2="31.11111111111111" y2="178" fill="rgb(0, 0, 0)" stroke="rgb(153, 153, 153)" stroke-width="1.5px"></line></g></g><g><g><g><g><g><path stroke="rgb(204, 51, 17)" stroke-width="2px" d="M34.22222222222222,28.78781019557601L37.333333333333336,24.349851543253063L40.44444444444444,26.820108265956556L43.55555555555556,28.123440828074983L46.666666666666664,29.27784028217848L49.77777777777778,28.82116859328896L52.888888888888886,27.248316349811283L56,28.018211069749153L59.111111111111114,31.27076643783262L62.22222222222222,30.181801359732805L65.33333333333333,35.11369437456753L68.44444444444444,33.96112496278343L71.55555555555554,29.56293225295543L74.66666666666667,30.928345431241322L77.77777777777779,25.43784970606857L80.88888888888889,25.05989367064019L84,27.13370620539939L87.11111111111111,31.889680693743383L90.22222222222223,31.834198035872127L93.33333333333333,36.140831013373266L96.44444444444444,27.729809059756704L99.55555555555556,31.32965631175293L102.66666666666666,30.185014597545834L105.77777777777777,29.144065044373168L108.88888888888889,27.584614080808368L112,28.175114819041845L115.1111111111111,29.535632650040686L118.22222222222223,30.452753263907372L121.33333333333334,32.80523500966332L124.44444444444444,21.028877350827656L127.55555555555556,34.64566649294294L130.66666666666666,47.502069210228505L133.77777777777777,53.80498407981007L136.88888888888889,52.60510780284029L140,59.83075097354848L143.1111111111111,59.49747658444242L146.22222222222223,57.87038211216577L149.33333333333334,57.775804713337166L152.44444444444443,55.799410272912134L155.55555555555557,72.02740482538267L158.66666666666666,74.84128503837775L161.77777777777777,58.62511566271689L164.88888888888889,64.2133616945262L168,75.38653017450167L171.11111111111111,81.94120203815487L174.22222222222223,90.16141320463451L177.33333333333331,93.38187917220766L180.44444444444446,113.00800692950756L183.55555555555554,119.95715217332341L186.66666666666666,127.29154885576664L189.7777777777778,130.17960131193155L192.88888888888889,130.64506464236263L196,127.66683999806982L199.11111111111111,124.49228177136051L202.22222222222223,132.95998093124658L205.33333333333331,133.85404170372323L208.44444444444446,135.15113053592833L211.55555555555554,139.4258152726573L214.66666666666669,142.28518793429095L217.77777777777777,149.30693665195454L220.88888888888889,153.04355576988715L224,153.8824716161182L227.11111111111111,147.2387521465007L230.2222222222222,140.24687107147525L233.33333333333334,131.81965875905175L236.44444444444446,128.64864275839957L239.55555555555554,126.32184098951238L242.66666666666669,130.87282224715563L245.77777777777777,139.16378136029513L248.88888888888889,125.92891937118068L252,130.09756010978558L255.11111111111111,128.99845451457963L258.22222222222223,132.86239588573847L261.3333333333333,138.96006408575892L264.44444444444446,131.84719320193253L267.55555555555554,117.88211748199488L270.6666666666667,126.7446414823776L273.77777777777777,137.08668221858355" style="fill: none;" fill="none"></path></g><g><path stroke="rgb(0, 119, 187)" stroke-width="2px" d="M34.22222222222222,7.904110214926918L37.333333333333336,19.199263551018397L40.44444444444444,23.63899375512093L43.55555555555556,27.91997251217375L46.666666666666664,31.070895251442288L49.77777777777778,32.818979533851646L52.888888888888886,32.86272235224248L56,27.807357559542556L59.111111111111114,30.2801412790529L62.22222222222222,33.24936904658313L65.33333333333333,40.458929735349926L68.44444444444444,30.30140413461846L71.55555555555554,27.891535961134807L74.66666666666667,29.45154486445567L77.77777777777779,20.630119733558082L80.88888888888889,33.04551463312208L84,30.95399797718519L87.11111111111111,34.53447752835728L90.22222222222223,38.018500970033315L93.33333333333333,37.9287490838849L96.44444444444444,41.94152417105148L99.55555555555556,49.589663037501055L102.66666666666666,50.83368387038665L105.77777777777777,48.38599858295256L108.88888888888889,49.38504671374364L112,33.9022969222359L115.1111111111111,34.68425791956899L118.22222222222223,40.52325876510019L121.33333333333334,45.781451311438005L124.44444444444444,69.89076890716484L127.55555555555556,67.4196857576792L130.66666666666666,65.55416355250816L133.77777777777777,37.36826366456783L136.88888888888889,50.83991873985985L140,52.58499045987232L143.1111111111111,53.555181193612L146.22222222222223,51.40059061076436L149.33333333333334,53.54886617780239L152.44444444444443,71.28383329599801L155.55555555555557,75.79561285816393L158.66666666666666,42.85792259862018L161.77777777777777,29.162008791200723L164.88888888888889,53.96100174142558L168,70.56027587738738L171.11111111111111,63.77688480076853L174.22222222222223,71.19819478126479L177.33333333333331,94.85482960879088L180.44444444444446,110.80900545661723L183.55555555555554,111.68339171475576L186.66666666666666,151.13312370978653L189.7777777777778,139.35010415495836L192.88888888888889,139.62246279066105L196,121.30973378828382L199.11111111111111,119.3792839874569L202.22222222222223,96.99828832542121L205.33333333333331,122.51172799043475L208.44444444444446,125.78963244606153L211.55555555555554,121.34646301006127L214.66666666666669,140.5578432310095L217.77777777777777,148.369990258397L220.88888888888889,130.26205168414032L224,114.67639043153785L227.11111111111111,138.18759886158418L230.2222222222222,169.03808966390764L233.33333333333334,120.93790652439631L236.44444444444446,108.43722383268408L239.55555555555554,109.93177153466236L242.66666666666669,143.2779086003408L245.77777777777777,149.33636220621386L248.88888888888889,140.534135421623L252,119.38388413979794L255.11111111111111,149.31507325537422L258.22222222222223,93.59043035292697L261.3333333333333,112.2310878792812L264.44444444444446,117.36058768767383L267.55555555555554,108.03443788426628L270.6666666666667,132.07178279503506L273.77777777777777,112.09233990809462" style="fill: none;" fill="none"></path></g></g></g></g><g opacity="0.2"><g><g><g><path stroke="rgb(204, 51, 17)" stroke-width="2px" d="M34.22222222222222,28.78781019557601L37.333333333333336,21.687076351859293L40.44444444444444,29.191554719751476L43.55555555555556,29.65615992112587L46.666666666666664,30.785024209455948L49.77777777777778,28.18942724574691L52.888888888888886,24.999112476002036L56,29.140724962407848L59.111111111111114,36.06765382940114L62.22222222222222,28.564815131100694L65.33333333333333,42.466801990162196L68.44444444444444,32.23854307694862L71.55555555555554,22.980004050514857L74.66666666666667,32.97379021211098L77.77777777777779,17.20855998992914L80.88888888888889,24.493226181377015L84,30.243547439575135L87.11111111111111,39.02243488485158L90.22222222222223,31.750982501290004L93.33333333333333,42.600386836311976L96.44444444444444,15.113737409765005L99.55555555555556,36.72930873524054L102.66666666666666,28.46807462518861L105.77777777777777,27.582653045654236L108.88888888888889,25.2454487193714L112,29.06086340817533L115.1111111111111,31.57640591534696L118.22222222222223,31.828432776711146L121.33333333333334,36.33395546132863L124.44444444444444,3.3643473711880247L127.55555555555556,55.07084569064049L130.66666666666666,66.78667072816324L133.77777777777777,63.25935563174156L136.88888888888889,50.80529347333036L140,70.66921541907564L143.1111111111111,58.99756500937716L146.22222222222223,55.429740428924504L149.33333333333334,57.6339386159723L152.44444444444443,52.83481862328265L155.55555555555557,96.36939659985626L158.66666666666666,79.06210535222829L161.77777777777777,34.30086161873551L164.88888888888889,72.59573073820629L168,92.14628288962618L171.11111111111111,91.77320983193131L174.22222222222223,102.49172995307222L177.33333333333331,98.212578123266L180.44444444444446,142.447198564356L183.55555555555554,130.38087003881276L186.66666666666666,138.29314387928352L189.7777777777778,134.51167999614364L192.88888888888889,131.343259638006L196,123.19950303164391L199.11111111111111,119.73044443130489L202.22222222222223,145.66152967106208L205.33333333333331,135.19513286243782L208.44444444444446,137.09676378423515L211.55555555555554,145.83784237774933L214.66666666666669,146.57424692674113L217.77777777777777,159.83955972844902L220.88888888888889,158.64848444678563L224,155.1408453854647L227.11111111111111,137.2731729420748L230.2222222222222,129.75904945893717L233.33333333333334,119.17884029041632L236.44444444444446,123.89211875742127L239.55555555555554,122.8316383361816L242.66666666666669,137.6992941336198L245.77777777777777,151.6002200300043L248.88888888888889,106.07662638750939L252,136.35052121769294L255.11111111111111,127.34979612177064L258.22222222222223,138.6583079424771L261.3333333333333,148.1065663857893L264.44444444444446,121.17788687619293L267.55555555555554,96.93450390208847L270.6666666666667,140.03842748295173L273.77777777777777,152.59974332289258" style="fill: none;" fill="none"></path></g><g><path stroke="rgb(0, 119, 187)" stroke-width="2px" d="M34.22222222222222,7.904110214926918L37.333333333333336,25.97635555267328L40.44444444444444,27.901134751059733L43.55555555555556,32.95440353046759L46.666666666666664,35.1847399798306L49.77777777777778,35.23720940676598L52.888888888888886,32.925275282426256L56,20.436587160283803L59.111111111111114,33.92701695182101L62.22222222222222,37.658326235684434L65.33333333333333,51.20788058367638L68.44444444444444,15.120392539284389L71.55555555555554,24.284602338617443L74.66666666666667,31.78850199959489L77.77777777777779,7.408351291309655L80.88888888888889,51.65985068407921L84,27.817608053033947L87.11111111111111,39.9042877717451L90.22222222222223,43.24400537664235L93.33333333333333,37.794129458340684L96.44444444444444,47.96046673167831L99.55555555555556,61.06161967190824L102.66666666666666,52.69969055869357L105.77777777777777,44.714499646967056L108.88888888888889,50.88361180912359L112,10.678238261829675L115.1111111111111,35.85719741474493L118.22222222222223,49.281751069155554L121.33333333333334,53.668735287406186L124.44444444444444,106.05473197590216L127.55555555555556,63.713061852888586L130.66666666666666,62.755880615927914L133.77777777777777,-4.9105828025124865L136.88888888888889,71.04740038785063L140,55.20259796489364L143.1111111111111,55.01046726920382L146.22222222222223,48.16870476982804L149.33333333333334,56.77127950841725L152.44444444444443,97.88628387451168L155.55555555555557,82.56328218633473L158.66666666666666,-6.548612724651058L161.77777777777777,8.618138096549233L164.88888888888889,91.15949114886193L168,95.45918707414103L171.11111111111111,53.6017981876026L174.22222222222223,82.33015975085168L177.33333333333331,130.33978184786704L180.44444444444446,134.74026922746134L183.55555555555554,112.99497110193421L186.66666666666666,210.30772170153526L189.7777777777778,121.67557482285929L192.88888888888889,140.03100074421272L196,93.8406402847983L199.11111111111111,116.48360928622155L202.22222222222223,63.42679483240296L205.33333333333331,160.78188748793164L208.44444444444446,130.70648912949991L211.55555555555554,114.68170885606241L214.66666666666669,169.37491356242785L217.77777777777777,160.08821079947728L220.88888888888889,103.10014382275665L224,91.29789855263444L227.11111111111111,173.4544115066528L230.2222222222222,215.31382586739278L233.33333333333334,48.78763181513001L236.44444444444446,89.68619979511602L239.55555555555554,112.1735930876298L242.66666666666669,193.29711419885805L245.77777777777777,158.4240426150235L248.88888888888889,127.33079524473708L252,87.65850721706039L255.11111111111111,194.21185692873863L258.22222222222223,10.003465999256433L261.3333333333333,140.19207416881213L264.44444444444446,125.05483740026295L267.55555555555554,94.0452131791548L270.6666666666667,168.12780016118828L273.77777777777777,82.12317557768382" style="fill: none;" fill="none"></path></g></g></g></g></g></g><g transform="translate(50, 178)" clip-path="url(#clip_1)"><clipPath id="clip_1"><rect width="280" height="22"></rect></clipPath><g><g><line x1="0" y1="0" x2="0" y2="5" style="visibility: inherit;" fill="rgb(0, 0, 0)" stroke="rgb(204, 204, 204)" stroke-width="1px"></line><line x1="31.11111111111111" y1="0" x2="31.11111111111111" y2="5" style="visibility: inherit;" fill="rgb(0, 0, 0)" stroke="rgb(204, 204, 204)" stroke-width="1px"></line><line x1="62.22222222222222" y1="0" x2="62.22222222222222" y2="5" style="visibility: inherit;" fill="rgb(0, 0, 0)" stroke="rgb(204, 204, 204)" stroke-width="1px"></line><line x1="93.33333333333333" y1="0" x2="93.33333333333333" y2="5" style="visibility: inherit;" fill="rgb(0, 0, 0)" stroke="rgb(204, 204, 204)" stroke-width="1px"></line><line x1="124.44444444444444" y1="0" x2="124.44444444444444" y2="5" style="visibility: inherit;" fill="rgb(0, 0, 0)" stroke="rgb(204, 204, 204)" stroke-width="1px"></line><line x1="155.55555555555557" y1="0" x2="155.55555555555557" y2="5" style="visibility: inherit;" fill="rgb(0, 0, 0)" stroke="rgb(204, 204, 204)" stroke-width="1px"></line><line x1="186.66666666666666" y1="0" x2="186.66666666666666" y2="5" style="visibility: inherit;" fill="rgb(0, 0, 0)" stroke="rgb(204, 204, 204)" stroke-width="1px"></line><line x1="217.77777777777777" y1="0" x2="217.77777777777777" y2="5" style="visibility: inherit;" fill="rgb(0, 0, 0)" stroke="rgb(204, 204, 204)" stroke-width="1px"></line><line x1="248.88888888888889" y1="0" x2="248.88888888888889" y2="5" style="visibility: inherit;" fill="rgb(0, 0, 0)" stroke="rgb(204, 204, 204)" stroke-width="1px"></line><line x1="280" y1="0" x2="280" y2="5" style="visibility: inherit;" fill="rgb(0, 0, 0)" stroke="rgb(204, 204, 204)" stroke-width="1px"></line></g><g transform="translate(0, 8)"><text x="0" y="0" dx="0em" dy="0.95em" style="text-anchor: middle; visibility: hidden; font-family: Roboto, sans-serif; font-size: 12px; font-weight: 200;" fill="rgb(50, 49, 63)" stroke="none" stroke-width="1px">-100</text><text x="31.11111111111111" y="0" dx="0em" dy="0.95em" style="text-anchor: middle; visibility: inherit; font-family: Roboto, sans-serif; font-size: 12px; font-weight: 200;" fill="rgb(50, 49, 63)" stroke="none" stroke-width="1px">0</text><text x="62.22222222222222" y="0" dx="0em" dy="0.95em" style="text-anchor: middle; visibility: inherit; font-family: Roboto, sans-serif; font-size: 12px; font-weight: 200;" fill="rgb(50, 49, 63)" stroke="none" stroke-width="1px">100</text><text x="93.33333333333333" y="0" dx="0em" dy="0.95em" style="text-anchor: middle; visibility: inherit; font-family: Roboto, sans-serif; font-size: 12px; font-weight: 200;" fill="rgb(50, 49, 63)" stroke="none" stroke-width="1px">200</text><text x="124.44444444444444" y="0" dx="0em" dy="0.95em" style="text-anchor: middle; visibility: inherit; font-family: Roboto, sans-serif; font-size: 12px; font-weight: 200;" fill="rgb(50, 49, 63)" stroke="none" stroke-width="1px">300</text><text x="155.55555555555557" y="0" dx="0em" dy="0.95em" style="text-anchor: middle; visibility: inherit; font-family: Roboto, sans-serif; font-size: 12px; font-weight: 200;" fill="rgb(50, 49, 63)" stroke="none" stroke-width="1px">400</text><text x="186.66666666666666" y="0" dx="0em" dy="0.95em" style="text-anchor: middle; visibility: inherit; font-family: Roboto, sans-serif; font-size: 12px; font-weight: 200;" fill="rgb(50, 49, 63)" stroke="none" stroke-width="1px">500</text><text x="217.77777777777777" y="0" dx="0em" dy="0.95em" style="text-anchor: middle; visibility: inherit; font-family: Roboto, sans-serif; font-size: 12px; font-weight: 200;" fill="rgb(50, 49, 63)" stroke="none" stroke-width="1px">600</text><text x="248.88888888888889" y="0" dx="0em" dy="0.95em" style="text-anchor: middle; visibility: inherit; font-family: Roboto, sans-serif; font-size: 12px; font-weight: 200;" fill="rgb(50, 49, 63)" stroke="none" stroke-width="1px">700</text><text x="280" y="0" dx="0em" dy="0.95em" style="text-anchor: middle; visibility: hidden; font-family: Roboto, sans-serif; font-size: 12px; font-weight: 200;" fill="rgb(50, 49, 63)" stroke="none" stroke-width="1px">800</text></g><line x1="0" y1="0" x2="280" y2="0" fill="rgb(0, 0, 0)" stroke="rgb(204, 204, 204)" stroke-width="1px"></line></g></g></g></g></svg>